<svg width="117" height="26" viewBox="0 0 117 26" fill="none" xmlns="http://www.w3.org/2000/svg">
<path opacity="0.5" d="M26.9942 1.65629L21.1221 22.8034C21.0923 22.8994 20.9728 22.9282 20.9032 22.861L16.9719 19.0693L19.9178 8.47174C19.9477 8.37575 19.8581 8.28936 19.7586 8.31816L8.77089 11.1595L4.8595 7.38703C4.78984 7.31984 4.81969 7.20465 4.91922 7.17585L26.8349 1.5027C26.9345 1.4835 27.024 1.5699 26.9942 1.65629Z" fill="#00B37E"/>
<path opacity="0.5" d="M16.9717 19.0691L15.4589 24.5407C15.429 24.6367 15.3096 24.6654 15.2399 24.5983L3.03797 12.8392C2.9683 12.772 2.99816 12.6568 3.09768 12.628L8.77069 11.1593L16.9717 19.0691Z" fill="#00B37E"/>
<path d="M19.9173 8.47153L16.9714 19.0691L8.77039 11.1593L19.7581 8.31794C19.8576 8.28914 19.9472 8.37553 19.9173 8.47153Z" fill="#00B37E"/>
<path d="M39.7781 19.3064H37.0988L37.1157 17.3286H39.7781C40.443 17.3286 41.0037 17.1793 41.4601 16.8806C41.9165 16.5763 42.2603 16.134 42.4913 15.5536C42.7279 14.9732 42.8463 14.2717 42.8463 13.449V12.8489C42.8463 12.2178 42.7787 11.6628 42.6434 11.1838C42.5138 10.7049 42.3194 10.302 42.0602 9.97517C41.801 9.64835 41.4827 9.40324 41.1051 9.23983C40.7276 9.07079 40.2937 8.98627 39.8035 8.98627H37.0481V7H39.8035C40.6262 7 41.3784 7.14087 42.0602 7.42261C42.7477 7.69871 43.3421 8.09597 43.8436 8.61437C44.3451 9.13277 44.7311 9.7526 45.0016 10.4739C45.2777 11.1895 45.4157 11.9868 45.4157 12.8658V13.449C45.4157 14.3224 45.2777 15.1197 45.0016 15.841C44.7311 16.5622 44.3451 17.1821 43.8436 17.7005C43.3478 18.2132 42.7533 18.6105 42.0602 18.8922C41.3728 19.1683 40.6121 19.3064 39.7781 19.3064ZM38.5357 7V19.3064H36V7H38.5357Z" fill="#E1E1E6"/>
<path d="M52.1859 7V19.3064H49.6587V7H52.1859ZM55.9725 7V8.98627H45.9313V7H55.9725Z" fill="#E1E1E6"/>
<path d="M62.43 7H64.5769L67.738 16.0354L70.8991 7H73.046L68.6001 19.3064H66.8759L62.43 7ZM61.2721 7H63.4105L63.7993 15.8072V19.3064H61.2721V7ZM72.0655 7H74.2124V19.3064H71.6767V15.8072L72.0655 7Z" fill="#E1E1E6"/>
<path d="M75.8943 14.8267V14.6492C75.8943 13.9787 75.9901 13.3617 76.1817 12.7982C76.3733 12.2291 76.6522 11.736 77.0185 11.3191C77.3848 10.9021 77.8355 10.5781 78.3708 10.3471C78.9061 10.1104 79.5203 9.99208 80.2134 9.99208C80.9065 9.99208 81.5235 10.1104 82.0644 10.3471C82.6054 10.5781 83.059 10.9021 83.4253 11.3191C83.7971 11.736 84.0789 12.2291 84.2705 12.7982C84.4621 13.3617 84.5578 13.9787 84.5578 14.6492V14.8267C84.5578 15.4916 84.4621 16.1086 84.2705 16.6778C84.0789 17.2412 83.7971 17.7343 83.4253 18.1569C83.059 18.5739 82.6082 18.8979 82.0729 19.1289C81.5376 19.3599 80.9234 19.4754 80.2303 19.4754C79.5372 19.4754 78.9202 19.3599 78.3793 19.1289C77.844 18.8979 77.3904 18.5739 77.0185 18.1569C76.6522 17.7343 76.3733 17.2412 76.1817 16.6778C75.9901 16.1086 75.8943 15.4916 75.8943 14.8267ZM78.3286 14.6492V14.8267C78.3286 15.2099 78.3624 15.5677 78.43 15.9002C78.4976 16.2326 78.6047 16.5256 78.7512 16.7792C78.9033 17.0271 79.1005 17.2215 79.3428 17.3624C79.5851 17.5033 79.881 17.5737 80.2303 17.5737C80.5684 17.5737 80.8586 17.5033 81.1009 17.3624C81.3432 17.2215 81.5376 17.0271 81.6841 16.7792C81.8306 16.5256 81.9377 16.2326 82.0053 15.9002C82.0785 15.5677 82.1152 15.2099 82.1152 14.8267V14.6492C82.1152 14.2773 82.0785 13.928 82.0053 13.6012C81.9377 13.2687 81.8278 12.9757 81.6756 12.7221C81.5291 12.4629 81.3347 12.2601 81.0924 12.1136C80.8501 11.9671 80.5571 11.8938 80.2134 11.8938C79.8697 11.8938 79.5767 11.9671 79.3344 12.1136C79.0977 12.2601 78.9033 12.4629 78.7512 12.7221C78.6047 12.9757 78.4976 13.2687 78.43 13.6012C78.3624 13.928 78.3286 14.2773 78.3286 14.6492Z" fill="#E1E1E6"/>
<path d="M88.4374 12.1136V19.3064H86.0032V10.1611H88.2853L88.4374 12.1136ZM88.0824 14.4126H87.4231C87.4231 13.7364 87.5105 13.1278 87.6852 12.5869C87.8598 12.0403 88.1049 11.5755 88.4205 11.1923C88.736 10.8035 89.1108 10.5077 89.5446 10.3048C89.9841 10.0963 90.4744 9.99208 91.0153 9.99208C91.4436 9.99208 91.8352 10.0541 92.1902 10.178C92.5452 10.302 92.8494 10.4992 93.103 10.7697C93.3622 11.0401 93.5594 11.398 93.6947 11.8431C93.8355 12.2883 93.906 12.832 93.906 13.4744V19.3064H91.4548V13.4659C91.4548 13.0602 91.3985 12.7447 91.2858 12.5193C91.1731 12.2939 91.0069 12.1361 90.7871 12.046C90.573 11.9502 90.3081 11.9023 89.9926 11.9023C89.6658 11.9023 89.3812 11.9671 89.1389 12.0967C88.9023 12.2263 88.7051 12.4066 88.5473 12.6376C88.3951 12.863 88.2796 13.1278 88.2007 13.4321C88.1219 13.7364 88.0824 14.0632 88.0824 14.4126Z" fill="#E1E1E6"/>
<path d="M99.9662 19.4754C99.2562 19.4754 98.6195 19.3627 98.056 19.1373C97.4925 18.9063 97.0136 18.588 96.6191 18.1823C96.2303 17.7765 95.9317 17.306 95.7232 16.7707C95.5147 16.2298 95.4105 15.655 95.4105 15.0465V14.7084C95.4105 14.0153 95.5091 13.3814 95.7063 12.8067C95.9035 12.2319 96.1852 11.7332 96.5515 11.3106C96.9234 10.888 97.3742 10.564 97.9039 10.3386C98.4335 10.1076 99.0308 9.99208 99.6957 9.99208C100.344 9.99208 100.918 10.0991 101.42 10.3133C101.921 10.5274 102.341 10.8317 102.679 11.2261C103.023 11.6205 103.282 12.0939 103.457 12.6461C103.632 13.1926 103.719 13.8012 103.719 14.4717V15.486H96.4501V13.8632H101.327V13.6772C101.327 13.3391 101.265 13.0377 101.141 12.7728C101.023 12.5024 100.842 12.2883 100.6 12.1305C100.358 11.9727 100.048 11.8938 99.6704 11.8938C99.3492 11.8938 99.0731 11.9643 98.842 12.1051C98.611 12.246 98.4223 12.4432 98.2757 12.6968C98.1349 12.9503 98.0278 13.249 97.9546 13.5927C97.887 13.9308 97.8531 14.3027 97.8531 14.7084V15.0465C97.8531 15.4127 97.9039 15.7508 98.0053 16.0608C98.1123 16.3707 98.2617 16.6383 98.4532 16.8637C98.6505 17.0891 98.8871 17.2638 99.1632 17.3877C99.445 17.5117 99.7633 17.5737 100.118 17.5737C100.558 17.5737 100.966 17.4892 101.344 17.3201C101.727 17.1454 102.057 16.8834 102.333 16.5341L103.516 17.8188C103.325 18.0949 103.063 18.3597 102.73 18.6133C102.403 18.8669 102.009 19.0754 101.547 19.2388C101.085 19.3965 100.558 19.4754 99.9662 19.4754Z" fill="#E1E1E6"/>
<path d="M107.7 18.2752L110.126 10.1611H112.737L109.061 20.6841C108.982 20.9151 108.875 21.1631 108.74 21.4279C108.61 21.6927 108.432 21.9435 108.207 22.1801C107.987 22.4224 107.708 22.6197 107.37 22.7718C107.038 22.9239 106.629 23 106.145 23C105.914 23 105.725 22.9859 105.578 22.9577C105.432 22.9296 105.257 22.8901 105.054 22.8394V21.056C105.116 21.056 105.181 21.056 105.249 21.056C105.316 21.0616 105.381 21.0644 105.443 21.0644C105.764 21.0644 106.026 21.0278 106.229 20.9546C106.432 20.8813 106.596 20.7686 106.719 20.6165C106.843 20.47 106.942 20.2784 107.015 20.0417L107.7 18.2752ZM106.686 10.1611L108.672 16.7876L109.018 19.3656L107.362 19.5431L104.074 10.1611H106.686Z" fill="#E1E1E6"/>
</svg>
